<?xml version="1.0" standalone="no"?>
<!DOCTYPE svg PUBLIC "-//W3C//DTD SVG 20010904//EN"
 "http://www.w3.org/TR/2001/REC-SVG-20010904/DTD/svg10.dtd">
<svg version="1.0" xmlns="http://www.w3.org/2000/svg"
 width="512.000000pt" height="512.000000pt" viewBox="0 0 512.000000 512.000000"
 preserveAspectRatio="xMidYMid meet">

<g transform="translate(0.000000,512.000000) scale(0.100000,-0.100000)"
fill="#ffffff" stroke="none">
<path d="M1317 4949 c-23 -14 -357 -681 -357 -714 0 -14 11 -37 25 -50 23 -24
29 -25 160 -25 l135 0 0 -136 0 -137 -54 52 c-61 57 -88 63 -130 30 -21 -16
-26 -29 -26 -62 0 -41 3 -44 375 -417 l375 -375 -225 -225 -225 -224 -153 152
c-171 169 -184 176 -238 123 -53 -53 -46 -67 134 -249 l142 -142 -113 -112
-112 -113 -378 378 c-342 342 -381 377 -410 377 -38 0 -82 -38 -82 -70 0 -12
6 -33 14 -48 18 -33 792 -805 823 -821 42 -21 64 -12 134 56 l70 67 56 -56 56
-56 -28 -34 c-101 -119 -112 -322 -25 -458 16 -25 101 -117 189 -204 146 -145
159 -161 150 -183 -5 -13 -9 -51 -9 -84 0 -110 67 -199 168 -224 45 -11 48
-14 64 -65 10 -29 29 -67 42 -85 27 -35 116 -85 152 -85 17 0 23 -7 27 -38 14
-86 99 -171 188 -187 34 -6 37 -10 42 -47 7 -51 47 -111 95 -142 64 -43 166
-54 223 -25 12 6 28 -5 64 -41 92 -94 209 -115 309 -56 51 30 102 101 111 157
6 32 11 39 29 39 37 0 123 49 151 86 15 19 34 58 43 86 16 48 20 52 62 62 25
7 62 24 82 40 39 29 88 114 88 152 0 18 7 23 40 29 99 17 190 124 190 224 0
76 -18 120 -71 176 -27 29 -49 56 -49 60 0 5 36 46 80 91 52 53 89 102 107
140 25 53 28 70 28 169 0 101 -2 114 -28 164 l-29 54 58 58 58 59 31 -29 c37
-35 67 -51 97 -51 16 0 140 117 466 443 243 243 445 452 448 465 14 54 -44
113 -98 97 -13 -4 -204 -188 -425 -408 l-403 -402 -225 225 -225 225 180 180
c159 160 180 185 180 214 0 43 -38 81 -81 81 -29 0 -54 -21 -214 -180 l-180
-180 -113 113 -112 112 405 405 c381 382 405 408 405 441 0 46 -33 79 -81 79
-31 0 -65 -32 -476 -443 -520 -519 -489 -471 -378 -586 l65 -67 -54 -53 -54
-54 -62 42 c-80 53 -126 66 -230 66 -70 -1 -97 -6 -153 -29 l-68 -28 -59 56
c-79 75 -152 108 -252 114 -43 3 -98 -1 -124 -7 l-47 -12 -69 68 -68 67 37 38
c29 29 37 46 37 73 0 34 -19 55 -287 323 l-287 287 0 218 0 217 1120 0 1120 0
0 -65 c0 -57 3 -69 25 -90 32 -33 78 -33 110 0 22 21 25 33 25 90 l0 65 135 0
c131 0 137 1 160 25 14 13 25 36 25 50 0 35 -335 701 -359 715 -27 14 -2459
14 -2484 -1z m373 -156 c0 -5 -33 -111 -74 -238 l-73 -230 -187 -3 -186 -2
120 240 120 240 140 0 c77 0 140 -3 140 -7z m468 -220 c-15 -126 -27 -234 -28
-240 0 -10 -49 -13 -211 -13 -165 0 -210 3 -207 13 6 13 11 30 93 290 l56 177
162 0 163 0 -28 -227z m617 205 c2 -13 14 -104 25 -203 11 -99 23 -197 26
-217 l6 -38 -272 0 -272 0 6 38 c3 20 15 118 26 217 11 99 23 190 25 203 5 22
6 22 215 22 209 0 210 0 215 -22z m540 -155 c82 -260 87 -277 93 -290 3 -10
-42 -13 -207 -13 -162 0 -211 3 -211 13 -1 6 -13 114 -28 240 l-28 227 162 0
163 0 56 -177z m515 -63 l120 -240 -186 2 -187 3 -73 230 c-41 127 -74 233
-74 238 0 4 63 7 140 7 l140 0 120 -240z m-2145 -2040 l-255 -255 -57 58 -58
57 255 255 255 255 57 -57 58 -58 -255 -255z m657 177 c24 -14 163 -146 311
-294 244 -246 267 -272 267 -303 0 -46 -33 -80 -78 -80 -33 0 -52 17 -242 205
-183 181 -210 205 -239 205 -39 0 -81 -38 -81 -74 0 -27 25 -60 107 -142 29
-29 53 -56 53 -61 0 -4 -164 -172 -365 -373 l-366 -365 -154 156 c-170 172
-195 209 -195 299 0 100 15 118 353 458 335 337 369 368 425 389 56 20 152 11
204 -20z m1408 -602 l-55 -55 -255 255 -255 255 55 55 55 55 255 -255 255
-255 -55 -55z m-854 497 c56 -30 769 -747 789 -794 24 -58 20 -150 -9 -206
-18 -34 -182 -204 -578 -598 -304 -304 -563 -555 -575 -559 -50 -14 -113 48
-97 98 3 12 130 146 280 298 295 297 298 300 252 354 -16 18 -34 26 -56 27
-30 1 -56 -22 -311 -275 -248 -248 -281 -277 -310 -277 -43 0 -81 38 -81 81 0
29 28 61 275 309 258 260 275 278 275 312 0 44 -36 78 -83 78 -27 0 -66 -34
-307 -275 -260 -260 -278 -275 -312 -275 -28 0 -42 6 -57 26 -43 55 -41 58
248 349 149 148 275 282 280 298 20 52 -17 101 -75 101 -32 0 -56 -21 -309
-274 -256 -256 -276 -274 -310 -274 -69 0 -100 71 -57 130 11 16 194 202 406
414 l386 385 77 -77 c89 -88 128 -108 210 -108 97 1 181 56 217 142 22 51 20
143 -3 193 -12 24 -88 109 -195 215 -97 96 -176 178 -176 182 0 3 12 11 28 17
39 15 132 6 178 -17z m668 -1442 c44 -49 48 -89 11 -125 -37 -38 -77 -33 -128
14 l-42 40 55 55 c30 31 57 56 61 56 4 0 23 -18 43 -40z m-225 -225 c17 -20
32 -43 32 -53 4 -62 -23 -96 -76 -96 -26 0 -44 8 -70 34 -19 19 -35 39 -35 44
0 14 92 106 106 106 7 0 26 -16 43 -35z m-189 -300 c0 -37 -42 -75 -83 -75
-25 0 -42 9 -72 40 l-39 40 54 56 55 55 43 -45 c27 -29 42 -54 42 -71z m-266
-155 c44 -49 48 -89 11 -125 -38 -39 -91 -28 -144 29 l-25 26 54 55 c30 30 57
55 61 55 4 0 23 -18 43 -40z"/>
<path d="M2185 3975 c-25 -24 -25 -24 -25 -240 l0 -215 -55 0 c-67 0 -105 -29
-105 -80 0 -19 9 -40 25 -55 l24 -25 511 0 511 0 24 25 c16 15 25 36 25 55 0
51 -38 80 -105 80 l-55 0 0 215 c0 216 0 216 -25 240 l-24 25 -351 0 -351 0
-24 -25z m295 -295 l0 -160 -80 0 -80 0 0 160 0 160 80 0 80 0 0 -160z m320 0
l0 -160 -80 0 -80 0 0 160 0 160 80 0 80 0 0 -160z"/>
</g>
</svg>
