<?xml version="1.0" standalone="no"?>
<!DOCTYPE svg PUBLIC "-//W3C//DTD SVG 20010904//EN"
 "http://www.w3.org/TR/2001/REC-SVG-20010904/DTD/svg10.dtd">
<svg version="1.0" xmlns="http://www.w3.org/2000/svg"
 width="512.000000pt" height="512.000000pt" viewBox="0 0 512.000000 512.000000"
 preserveAspectRatio="xMidYMid meet">

<g transform="translate(0.000000,512.000000) scale(0.100000,-0.100000)"
fill="#ffffff" stroke="none">
<path d="M4293 4240 c-54 -11 -61 -15 -316 -173 -241 -150 -273 -162 -395
-155 -73 5 -88 10 -307 116 -126 61 -252 116 -278 123 -29 7 -87 10 -150 7
-111 -6 -176 -26 -252 -78 l-43 -30 -104 50 c-224 109 -374 107 -644 -10 -292
-127 -359 -128 -647 -9 -93 39 -193 74 -222 79 -98 16 -224 -14 -313 -73 -52
-35 -554 -601 -585 -660 -51 -97 -46 -220 14 -310 16 -25 130 -130 268 -247
l239 -203 -121 -129 c-155 -164 -172 -194 -172 -313 0 -78 4 -97 27 -141 34
-64 143 -166 202 -189 l45 -17 -17 -42 c-26 -62 -22 -178 8 -241 30 -63 131
-164 196 -195 39 -19 66 -24 129 -24 44 -1 92 3 106 7 24 8 27 5 43 -38 26
-67 115 -158 191 -196 103 -50 183 -49 305 5 11 4 23 -9 44 -49 33 -64 107
-135 181 -173 43 -23 63 -27 135 -27 125 0 170 25 309 172 l110 116 38 -33
c21 -19 84 -76 140 -128 119 -111 145 -128 225 -148 76 -20 133 -13 215 27 70
34 149 114 183 187 24 50 14 54 113 -36 71 -65 126 -86 222 -87 67 0 89 4 136
28 93 45 194 165 213 252 l6 30 83 0 c71 0 90 4 141 30 67 34 153 122 187 194
18 35 23 64 24 124 l0 78 40 10 c61 16 118 53 170 111 70 77 100 147 100 233
0 100 -24 155 -105 240 l-67 70 354 390 c413 455 418 463 418 610 0 77 -4 98
-27 147 -24 52 -408 555 -475 622 -43 44 -97 75 -160 91 -62 16 -96 17 -160 5z
m169 -192 c28 -18 443 -545 466 -591 20 -41 19 -125 -3 -167 -13 -25 -526
-604 -689 -778 l-22 -22 -169 157 c-94 86 -226 203 -295 261 -136 113 -650
487 -715 519 -63 32 -144 46 -236 41 -97 -5 -134 -20 -285 -108 -85 -51 -108
-60 -148 -60 -67 0 -111 24 -159 88 -36 47 -42 63 -42 103 0 32 7 57 21 76 11
15 137 110 280 211 286 202 317 217 433 210 60 -3 87 -14 311 -121 279 -133
333 -147 474 -128 105 15 151 35 321 141 333 208 303 192 371 188 34 -2 72
-11 86 -20z m-2224 -53 c23 -3 66 -17 96 -32 l55 -26 -156 -110 c-91 -65 -166
-126 -183 -149 -89 -123 -78 -275 29 -408 50 -63 68 -77 134 -110 126 -61 229
-47 397 54 58 35 126 69 150 76 54 15 148 7 193 -16 53 -28 538 -378 656 -474
140 -114 679 -610 709 -651 26 -37 30 -105 8 -148 -23 -44 -101 -109 -139
-116 -71 -14 -92 2 -459 342 l-351 325 -49 -49 c-27 -26 -54 -55 -58 -64 -8
-13 66 -86 370 -368 415 -385 414 -383 390 -470 -13 -51 -102 -135 -151 -145
-70 -13 -94 5 -455 339 -190 176 -349 321 -353 323 -13 5 -124 -119 -115 -128
5 -4 144 -132 309 -284 165 -153 308 -291 318 -309 25 -47 22 -96 -12 -148
-34 -55 -71 -85 -119 -99 -74 -20 -89 -10 -422 298 -171 158 -315 287 -320
287 -5 0 -33 -27 -63 -60 l-54 -60 151 -139 c83 -77 161 -155 173 -175 41 -65
25 -127 -50 -200 -36 -35 -54 -44 -90 -48 -25 -3 -57 -3 -71 1 -14 3 -91 67
-170 141 l-145 136 16 37 c26 60 22 166 -9 233 -51 111 -190 216 -299 227
l-47 4 -20 63 c-28 85 -82 174 -129 211 -42 34 -115 74 -135 74 -10 0 -13 25
-13 102 0 122 -15 158 -103 250 -66 70 -139 108 -220 115 l-60 6 -6 46 c-13
97 -114 218 -226 269 -42 20 -70 25 -125 25 -100 0 -168 -32 -265 -127 l-75
-74 -237 204 c-130 112 -243 214 -249 226 -20 37 -14 107 12 142 13 17 133
154 268 305 272 304 292 321 402 321 47 0 83 -11 220 -69 216 -91 232 -95 379
-95 147 0 173 6 392 100 97 41 175 68 213 73 59 8 77 8 163 -4z m-1160 -1189
c70 -37 127 -127 119 -188 -6 -46 -31 -75 -314 -367 l-198 -204 -50 -4 c-43
-4 -57 0 -96 25 -92 59 -127 141 -92 214 21 43 452 495 497 521 37 21 97 22
134 3z m375 -340 c91 -40 151 -139 129 -213 -17 -56 -604 -670 -666 -697 -67
-29 -108 -17 -178 53 -56 56 -58 59 -58 112 0 35 6 63 18 80 9 14 154 169 321
343 337 350 349 359 434 322z m281 -456 c34 -12 104 -77 122 -111 19 -39 18
-98 -5 -135 -30 -49 -420 -451 -449 -463 -30 -12 -53 -15 -95 -13 -40 3 -134
93 -149 143 -21 73 -7 94 222 334 115 121 224 228 242 238 36 19 74 22 112 7z
m391 -369 c47 -21 112 -89 121 -126 11 -44 -3 -103 -31 -137 -69 -84 -274
-282 -304 -295 -58 -25 -105 -9 -173 56 -59 58 -64 71 -58 141 4 43 25 71 172
222 90 92 152 148 168 151 48 8 65 6 105 -12z"/>
</g>
</svg>
