<?xml version="1.0" standalone="no"?>
<!DOCTYPE svg PUBLIC "-//W3C//DTD SVG 20010904//EN"
 "http://www.w3.org/TR/2001/REC-SVG-20010904/DTD/svg10.dtd">
<svg version="1.0" xmlns="http://www.w3.org/2000/svg"
 width="512.000000pt" height="512.000000pt" viewBox="0 0 512.000000 512.000000"
 preserveAspectRatio="xMidYMid meet">

<g transform="translate(0.000000,512.000000) scale(0.100000,-0.100000)"
fill="#ffffff" stroke="none">
<path d="M1871 5105 c-493 -63 -962 -297 -1298 -648 -394 -412 -592 -939 -570
-1517 12 -319 81 -580 228 -870 111 -218 238 -389 423 -567 176 -170 372 -304
586 -400 96 -43 112 -48 182 -48 70 0 79 2 115 31 76 60 102 157 64 239 -27
58 -65 89 -161 130 -354 151 -660 426 -837 755 -197 364 -247 831 -133 1255
113 425 377 784 740 1008 348 214 814 295 1223 213 666 -135 1184 -643 1327
-1302 28 -131 54 -175 125 -210 47 -22 64 -26 108 -21 66 8 123 47 155 107 20
39 23 54 19 110 -12 145 -91 390 -192 591 -107 215 -233 386 -416 564 -321
313 -683 497 -1119 570 -135 23 -428 28 -569 10z"/>
<path d="M2042 4309 c-45 -13 -108 -80 -121 -126 -6 -21 -11 -74 -11 -118 l0
-80 -73 -34 c-101 -47 -213 -160 -262 -262 -169 -357 31 -773 410 -854 39 -8
87 -15 109 -15 99 0 181 -57 205 -143 39 -139 -64 -267 -206 -255 -71 6 -126
45 -170 121 -48 82 -97 112 -182 112 -79 0 -128 -25 -169 -88 -39 -59 -38
-151 3 -227 46 -85 176 -210 261 -251 l71 -34 4 -95 c5 -111 25 -154 92 -198
34 -23 52 -27 107 -27 55 0 73 4 107 27 67 44 87 87 92 198 l4 95 79 38 c138
67 246 199 294 362 27 88 24 238 -5 335 -59 197 -210 349 -402 404 -29 9 -92
20 -139 24 -104 11 -153 33 -191 85 -68 94 -38 237 61 287 59 30 113 35 163
16 50 -19 82 -51 121 -119 15 -26 46 -60 68 -75 35 -23 52 -27 108 -27 55 0
73 4 107 27 62 41 88 90 88 168 0 57 -5 74 -39 135 -53 95 -154 193 -243 236
l-70 34 -4 100 c-5 115 -24 158 -89 201 -43 29 -125 39 -178 23z"/>
<path d="M3952 2769 c-47 -14 -109 -80 -123 -131 -24 -92 16 -190 96 -232 37
-19 59 -21 279 -24 l240 -3 -295 -295 -294 -294 -515 0 c-337 0 -529 -4 -555
-11 -34 -9 -141 -111 -758 -727 -395 -395 -728 -733 -740 -752 -34 -53 -31
-153 5 -207 50 -75 137 -107 228 -83 41 11 105 71 730 696 l685 684 523 0
c449 0 528 2 560 15 25 11 147 126 369 347 l332 331 3 -231 3 -230 30 -43 c73
-103 218 -116 305 -29 60 60 61 70 58 611 l-3 485 -27 41 c-15 22 -44 51 -65
64 l-38 24 -500 2 c-298 1 -513 -2 -533 -8z"/>
<path d="M3252 1079 c-46 -14 -109 -80 -122 -128 -7 -27 -10 -170 -8 -423 3
-352 5 -386 22 -421 39 -78 137 -122 223 -98 61 16 105 50 129 98 18 35 19 66
19 443 l0 405 -24 38 c-47 76 -151 113 -239 86z"/>
<path d="M4052 1079 c-46 -14 -109 -80 -122 -128 -7 -27 -10 -170 -8 -423 3
-352 5 -386 22 -421 39 -78 137 -122 223 -98 61 16 105 50 129 98 18 35 19 66
19 443 l0 405 -24 38 c-47 76 -151 113 -239 86z"/>
<path d="M4852 1079 c-46 -14 -109 -80 -122 -128 -7 -27 -10 -170 -8 -423 3
-352 5 -386 22 -421 39 -78 137 -122 223 -98 61 16 105 50 129 98 18 35 19 66
19 443 l0 405 -24 38 c-47 76 -151 113 -239 86z"/>
<path d="M2452 469 c-47 -14 -109 -80 -122 -131 -16 -59 -9 -184 14 -231 24
-48 68 -82 129 -98 86 -24 184 20 223 98 15 30 19 60 19 138 0 88 -3 105 -24
138 -47 76 -151 113 -239 86z"/>
</g>
</svg>
